<?xml version="1.0" standalone="no"?>
<!DOCTYPE svg PUBLIC "-//W3C//DTD SVG 20010904//EN"
 "http://www.w3.org/TR/2001/REC-SVG-20010904/DTD/svg10.dtd">
<svg version="1.0" xmlns="http://www.w3.org/2000/svg"
 width="1024.000000pt" height="1024.000000pt" viewBox="0 0 1024.000000 1024.000000"
 preserveAspectRatio="xMidYMid meet">
<metadata>
Created by potrace 1.16, written by Peter Selinger 2001-2019
</metadata>
<g transform="translate(0.000000,1024.000000) scale(0.100000,-0.100000)"
fill="#000000" stroke="none">
<path d="M2930 8550 c-50 -26 -100 -74 -105 -99 -5 -29 -37 -81 -50 -81 -5 0
-16 -9 -23 -21 -7 -12 -16 -18 -19 -15 -4 3 -13 -4 -21 -15 -11 -16 -12 -23
-3 -28 8 -5 -4 -38 -39 -107 -28 -54 -47 -88 -44 -74 4 14 20 51 35 82 33 65
39 94 8 35 -25 -48 -35 -43 -14 8 9 20 14 39 12 41 -5 6 -57 -132 -57 -150 0
-8 -6 -36 -14 -62 -8 -27 -20 -71 -27 -97 -8 -34 -15 -44 -20 -35 -4 8 -26 87
-48 176 -49 202 -81 265 -172 340 -118 97 -185 125 -224 92 -30 -25 -6 -112
51 -187 14 -19 62 -102 106 -186 44 -83 96 -175 114 -204 58 -90 97 -180 76
-172 -5 2 -30 28 -55 57 -57 67 -196 179 -283 228 -170 95 -409 161 -442 121
-23 -27 -31 -74 -17 -94 7 -10 72 -47 144 -83 71 -36 130 -71 131 -78 0 -7
-24 -41 -52 -76 -76 -92 -112 -157 -162 -287 -24 -64 -50 -129 -59 -145 l-15
-29 -17 60 c-31 112 -37 130 -74 205 -66 138 -226 271 -276 230 -41 -34 -13
-97 150 -341 63 -94 115 -175 115 -180 0 -5 11 -27 25 -49 14 -22 25 -42 25
-46 0 -3 -35 30 -77 73 -149 152 -417 272 -599 269 -39 -1 -39 -1 -39 -41 l0
-40 115 -57 c103 -50 261 -124 449 -209 35 -16 62 -31 60 -33 -2 -2 -29 0 -59
6 -119 22 -329 -9 -460 -68 -56 -26 -150 -108 -150 -132 0 -18 57 -40 115 -44
l49 -3 7 47 c13 85 33 93 42 17 4 -29 9 -54 12 -57 3 -3 26 -1 53 4 l47 9 3
63 c2 52 6 62 21 62 15 0 20 -11 25 -59 l7 -59 47 12 47 12 3 52 c2 37 7 52
18 52 10 0 14 -12 14 -39 0 -22 3 -42 8 -45 4 -2 38 9 76 25 116 49 142 35 49
-26 -124 -81 -293 -288 -293 -357 0 -24 48 -78 68 -78 17 0 72 41 88 65 15 22
15 32 5 67 -18 57 -2 67 43 28 l35 -32 26 28 c13 14 29 41 34 58 7 28 107 176
118 176 2 0 3 -454 2 -1010 -1 -555 -4 -1008 -6 -1007 -2 2 -12 51 -22 109
-24 132 -63 262 -107 355 -38 79 -81 136 -95 127 -5 -3 -7 -10 -4 -15 4 -5 2
-9 -2 -9 -5 0 -9 -9 -10 -20 -1 -11 2 -18 7 -15 9 6 18 -21 65 -200 30 -114
85 -380 84 -404 0 -9 -7 4 -16 29 -91 267 -153 403 -199 439 -70 55 -71 -35
-2 -185 97 -210 138 -304 138 -314 0 -6 -42 51 -93 126 -67 100 -107 149 -148
181 -103 81 -167 74 -95 -10 20 -23 59 -75 88 -115 49 -68 194 -266 221 -302
15 -19 -3 -6 -93 71 -98 84 -146 116 -208 139 -49 19 -57 19 -70 6 -18 -18
-11 -25 181 -184 76 -62 135 -117 132 -121 -2 -5 -25 -14 -50 -20 -42 -11 -89
-43 -79 -54 8 -8 142 2 183 12 69 19 246 34 329 28 77 -4 85 -3 89 14 3 10 9
19 14 19 4 0 7 9 6 20 -1 11 -8 20 -15 20 -11 0 -13 8 -8 32 3 18 10 36 14 39
6 7 106 0 237 -16 27 -4 46 -3 42 2 -4 4 9 12 30 18 27 7 39 17 41 32 5 31
-22 41 -129 49 -52 3 -103 8 -114 9 -11 2 -28 4 -37 4 -10 1 -18 5 -18 10 0
11 102 28 220 37 89 6 133 13 240 38 36 8 112 18 170 21 58 4 186 15 285 26
99 11 208 20 243 20 34 0 73 3 85 8 12 5 43 11 70 15 45 7 47 6 47 -18 0 -21
-6 -25 -42 -31 -85 -13 -98 -22 -100 -74 -2 -66 2 -95 14 -102 17 -10 182 -30
309 -36 87 -4 140 -2 210 11 52 9 112 15 134 12 22 -2 47 -5 56 -5 9 -1 22
-12 29 -26 17 -32 18 -32 190 -50 144 -15 145 -15 270 10 69 14 172 34 230 44
139 25 160 34 160 65 0 33 11 38 62 27 24 -5 176 -17 338 -25 257 -14 507 -37
576 -53 27 -6 82 -81 90 -122 6 -30 5 -31 -30 -31 -20 0 -58 11 -85 25 -61 30
-135 49 -158 40 -16 -6 -16 -9 7 -29 34 -29 174 -197 189 -224 13 -25 13 -25
-79 -1 -46 12 -164 11 -176 -1 -6 -6 -33 -6 -74 0 -75 11 -116 13 -107 4 3 -3
-18 -27 -46 -54 l-51 -48 80 -7 c178 -15 228 -31 288 -93 l28 -30 -31 -17
c-28 -14 -51 -48 -51 -75 0 -18 55 -26 123 -17 49 6 72 6 80 -2 16 -16 6 -21
-128 -66 -79 -27 -115 -44 -118 -56 -4 -14 -13 -17 -48 -12 -75 8 -251 33
-309 43 -30 6 -73 12 -96 14 -22 1 -45 5 -50 9 -12 7 -208 33 -313 41 -65 6
-72 5 -61 -9 7 -8 22 -15 35 -15 12 0 30 -9 40 -20 18 -19 17 -20 -5 -20 -40
0 -7 -22 34 -23 20 -1 36 -4 36 -7 0 -4 19 -7 43 -8 23 -1 53 -4 67 -7 14 -2
47 -7 74 -10 27 -3 52 -7 55 -10 4 -2 32 -5 62 -6 30 -1 63 -8 74 -15 26 -17
115 -24 115 -10 0 8 3 8 8 0 4 -6 31 -10 62 -9 30 1 62 -2 70 -6 25 -13 55
-22 63 -20 4 0 10 -6 13 -14 4 -8 18 -15 34 -15 33 0 189 53 310 105 47 20 95
37 108 37 12 0 41 -17 67 -41 53 -48 74 -51 190 -21 103 26 236 98 326 176 56
49 78 52 110 17 14 -17 29 -37 31 -44 4 -11 27 -14 94 -13 163 1 316 50 426
136 29 23 46 33 38 22 -8 -10 5 -1 28 21 43 40 52 52 30 39 -7 -4 10 17 37 48
28 30 52 54 55 54 19 -2 92 38 104 57 16 23 18 87 3 98 -15 11 93 197 135 233
92 79 276 104 381 52 125 -61 183 -130 193 -233 8 -74 -8 -90 -96 -94 -8 -1
-42 -7 -75 -14 -33 -7 -67 -13 -75 -13 -63 -1 -161 -26 -210 -52 -28 -15 -92
-20 -134 -10 -48 11 -62 5 -75 -28 l-9 -27 -2 30 c-1 21 -5 12 -14 -30 -6 -33
-15 -65 -19 -72 -13 -20 13 -19 122 4 704 151 1046 228 1246 279 33 9 71 23
85 32 14 10 34 20 45 24 13 5 5 6 -21 5 -37 -2 -40 0 -30 15 6 10 75 77 153
150 79 72 143 136 143 140 0 5 -11 13 -24 20 -22 9 -32 6 -78 -23 -29 -19 -89
-65 -133 -104 -114 -100 -115 -100 -115 -83 0 8 19 37 43 64 23 28 78 104 122
169 44 66 99 139 122 162 40 40 40 42 22 58 -13 12 -26 15 -46 10 -44 -11
-177 -157 -234 -257 -28 -48 -54 -90 -58 -93 -5 -2 16 59 46 138 30 78 65 180
78 227 13 47 33 112 45 144 11 33 20 71 20 86 0 35 -25 58 -48 43 -26 -16
-101 -202 -176 -438 -48 -151 -58 -146 -31 12 19 112 44 488 36 522 -11 39
-57 42 -72 5 -14 -38 -37 -264 -49 -473 -8 -158 -13 -192 -24 -180 -2 2 -18
96 -35 209 -32 203 -32 208 -25 452 l7 246 30 6 c16 3 60 6 98 6 65 0 69 1 75
26 9 35 -3 44 -118 94 l-98 43 0 475 c0 390 2 473 13 464 7 -6 49 -63 92 -127
43 -63 83 -115 87 -115 5 0 22 10 38 22 35 25 48 18 32 -17 -7 -14 -12 -34
-12 -44 0 -26 65 -81 95 -81 25 0 65 42 65 67 0 64 -179 279 -304 367 -73 51
-53 60 49 21 37 -14 71 -25 76 -25 4 0 13 18 19 40 6 22 15 40 21 40 5 0 7
-11 3 -24 -8 -32 10 -62 46 -81 53 -27 65 -21 76 38 8 44 13 53 33 55 25 4 26
-1 6 -81 -6 -22 -2 -29 27 -47 18 -11 38 -20 45 -20 7 0 22 27 34 60 16 44 27
60 40 60 17 0 18 -7 16 -62 l-2 -62 50 3 c59 3 135 34 135 54 0 21 -81 92
-137 120 -101 51 -179 69 -328 74 -83 3 -155 1 -178 -5 -100 -28 49 54 171 94
41 14 87 34 103 44 15 11 33 20 41 20 21 0 96 38 105 53 4 7 35 24 68 37 91
36 115 55 115 95 0 39 -9 44 -75 38 -75 -5 -138 -22 -234 -60 -190 -77 -302
-150 -378 -247 -20 -26 -39 -43 -41 -38 -4 14 104 206 219 389 104 165 120
199 108 231 -11 30 -36 28 -92 -7 -123 -79 -192 -185 -259 -400 -13 -41 -28
-76 -34 -78 -6 -2 -19 22 -29 54 -46 151 -60 183 -102 245 -54 82 -142 164
-208 197 -60 30 -79 21 -83 -38 -3 -37 5 -53 79 -164 45 -67 114 -165 154
-217 62 -82 143 -210 133 -210 -2 0 -32 28 -68 61 -161 153 -394 266 -594 288
-49 6 -93 8 -97 5 -17 -10 -9 -64 12 -85 24 -24 136 -79 160 -79 9 0 19 -6 22
-13 3 -8 34 -24 69 -37 34 -13 74 -31 88 -40 14 -10 57 -28 95 -40 72 -24 195
-76 195 -83 0 -2 -55 -2 -122 1 -210 8 -404 -46 -499 -137 -27 -26 -49 -53
-49 -60 0 -15 52 -37 121 -52 62 -13 69 -7 69 64 0 39 3 47 19 47 19 0 31 -34
31 -86 0 -21 3 -23 33 -17 74 14 77 17 77 83 0 53 2 60 19 60 16 0 21 -10 26
-55 8 -60 15 -64 73 -44 28 10 31 16 38 65 4 36 11 54 20 54 10 0 14 -14 14
-49 l0 -50 87 30 c48 16 90 29 95 29 23 0 0 -24 -80 -84 -103 -76 -176 -150
-227 -230 -48 -76 -55 -119 -25 -151 30 -32 43 -31 86 2 48 36 56 54 45 103
-11 52 2 60 39 25 37 -35 58 -30 89 26 39 68 128 190 137 187 10 -4 5 -854 -5
-879 -6 -17 -14 -15 -101 25 -52 24 -135 62 -185 84 -49 21 -172 77 -273 122
l-182 83 -43 -21 c-44 -22 -175 -75 -214 -87 -23 -6 -23 -5 -23 96 l0 102 196
-5 c138 -4 197 -2 199 6 2 6 5 35 8 64 l4 54 -42 18 c-23 10 -100 51 -171 91
-184 103 -378 208 -454 245 -36 18 -130 71 -208 118 -79 47 -182 104 -228 128
l-85 43 1 220 c1 121 1 239 1 263 l-1 42 -384 0 -384 0 -5 -22 c-2 -13 -5
-142 -6 -288 -1 -146 -4 -274 -7 -285 -4 -17 11 -27 88 -65 95 -46 114 -64 78
-73 -11 -3 -20 -10 -20 -17 0 -6 8 -9 18 -6 9 3 28 -4 42 -15 l25 -21 -28 5
c-34 5 -46 -15 -26 -40 12 -15 12 -16 -4 -10 -10 4 -23 7 -28 7 -5 0 -9 13 -9
28 0 28 -15 52 -33 52 -5 0 -6 -11 -3 -24 7 -29 -3 -86 -15 -86 -5 0 -9 8 -10
18 -1 9 -6 0 -13 -21 l-12 -37 -13 46 c-10 34 -11 48 -2 53 8 5 8 14 -2 34
-10 23 -17 27 -47 25 -27 -2 -34 -7 -32 -20 2 -14 -4 -18 -28 -18 -18 0 -29 4
-25 10 3 6 13 10 21 10 8 0 14 2 14 3 0 11 -33 67 -37 63 -2 -2 0 -13 6 -25
11 -21 2 -33 -27 -37 -21 -4 -27 -14 -8 -14 9 0 15 -4 12 -9 -7 -11 41 -24 54
-16 6 4 10 -3 10 -14 0 -14 -6 -21 -20 -21 -13 0 -20 -7 -20 -19 0 -29 -71
-48 -91 -24 -7 7 -27 21 -45 29 -19 9 -31 20 -28 25 3 5 -2 9 -12 9 -24 0
-237 123 -281 162 -10 9 -81 53 -157 98 -76 44 -164 98 -195 118 -74 48 -166
101 -276 158 -49 26 -115 63 -145 84 -30 20 -69 42 -87 49 -29 12 -36 11 -70
-10 -87 -52 -238 -148 -383 -244 -85 -56 -234 -152 -330 -214 -96 -62 -213
-139 -260 -171 -47 -32 -199 -133 -338 -225 -138 -92 -255 -171 -258 -176 -4
-7 22 -107 29 -110 1 0 97 -2 212 -5 116 -2 216 -6 223 -9 9 -3 12 -45 10
-175 -1 -93 -3 -171 -3 -172 0 -1 -151 -4 -335 -7 -219 -4 -338 -3 -342 4 -10
14 -8 1335 2 1335 4 0 22 -22 40 -50 18 -27 45 -61 61 -74 16 -14 29 -31 29
-38 0 -31 74 -123 90 -113 6 3 8 0 5 -7 -6 -16 30 -77 50 -85 9 -3 24 2 34 11
10 9 30 16 46 16 l28 0 -22 -24 c-29 -30 -22 -57 23 -91 48 -37 81 -33 105 12
18 35 13 64 -22 138 -69 142 -179 266 -327 366 -36 24 -58 45 -50 47 8 1 53
-9 99 -23 47 -14 89 -25 96 -25 6 0 17 20 24 45 18 60 36 72 28 17 -4 -22 -10
-47 -13 -56 -4 -10 9 -22 45 -40 28 -14 52 -26 55 -26 3 0 17 27 32 60 24 55
45 73 58 52 3 -5 -2 -35 -10 -66 -8 -32 -14 -59 -12 -61 24 -18 85 -55 91 -55
5 0 22 29 38 65 16 36 34 65 39 65 19 0 23 -31 12 -78 -7 -33 -7 -51 0 -59 13
-16 100 -17 116 -1 9 9 21 9 50 0 57 -17 102 -16 102 3 0 28 -38 91 -74 123
-104 91 -217 143 -391 179 -99 20 -137 24 -219 19 -97 -5 -98 -5 -81 14 9 10
47 29 84 40 36 12 107 39 156 60 50 21 124 48 165 60 41 12 91 28 110 35 19 7
67 20 106 29 93 23 146 64 142 110 -3 29 -6 31 -48 37 -95 13 -204 2 -337 -35
-221 -60 -336 -128 -439 -260 -33 -41 -62 -75 -65 -75 -11 -1 -20 32 -11 38 5
3 17 22 27 41 10 19 36 62 60 95 23 33 58 89 79 125 36 64 75 123 178 270 57
81 93 170 83 207 -7 29 -45 30 -95 3z m-836 -685 c13 -9 68 -31 122 -50 157
-55 153 -63 -33 -57 -87 2 -160 6 -162 8 -7 6 32 114 41 114 5 0 19 -7 32 -15z
m4125 -435 c2 -247 0 -291 -12 -296 -8 -3 -52 16 -98 42 -46 26 -105 59 -131
73 l-48 26 0 223 0 222 143 0 143 0 3 -290z m-4179 196 c0 -57 8 -66 55 -66
29 0 47 6 60 20 12 13 21 16 25 10 4 -7 29 -6 79 5 40 8 82 15 94 14 42 -1
-157 -81 -230 -92 -63 -10 -163 -49 -220 -86 -54 -35 -97 -76 -151 -145 -71
-91 6 79 92 203 28 40 55 82 61 92 10 20 25 26 25 10 0 -16 31 -41 51 -41 13
0 19 7 19 24 0 45 13 86 26 86 9 0 14 -12 14 -34z m2403 -75 c34 -21 96 -58
137 -81 41 -23 109 -64 150 -90 41 -26 147 -90 235 -142 88 -52 207 -124 265
-160 58 -36 168 -104 245 -151 77 -47 194 -120 260 -162 66 -42 139 -88 162
-103 69 -43 67 -69 -6 -79 -66 -9 -148 30 -441 211 -36 22 -200 121 -365 221
-165 100 -361 219 -435 264 -170 105 -250 151 -260 151 -5 0 -76 -44 -159 -97
-82 -54 -197 -127 -255 -163 -166 -102 -581 -365 -686 -435 -52 -34 -123 -77
-157 -94 -58 -29 -70 -31 -148 -29 -47 2 -85 6 -85 9 0 6 140 99 600 399 146
95 301 196 345 225 44 29 166 107 270 175 105 67 206 133 225 146 19 13 36 24
38 24 1 0 31 -17 65 -39z m-1993 -222 c0 -110 -3 -199 -7 -197 -81 41 -169 79
-202 87 -24 5 -45 12 -48 15 -3 3 16 28 43 55 27 26 83 92 124 145 41 53 78
96 83 96 4 0 7 -90 7 -201z m1988 -52 c21 -22 21 -28 24 -535 l3 -512 -32 0
-33 0 0 535 c0 294 4 535 8 535 5 0 18 -10 30 -23z m-108 -549 l0 -498 -32 0
-33 0 0 489 0 489 25 20 c18 14 27 17 32 9 4 -7 8 -236 8 -509z m248 469 c9
-11 12 -136 10 -488 l-3 -474 -27 -3 -28 -3 0 501 c0 482 1 500 18 491 10 -5
24 -16 30 -24z m-387 -189 c1 -84 3 -241 5 -348 3 -107 1 -248 -2 -312 l-6
-118 -28 0 -28 0 2 449 c3 464 4 481 42 481 11 0 14 -30 15 -152z m-2193 49
c9 -8 29 -17 44 -21 24 -5 28 -3 34 21 3 16 9 41 13 58 8 31 35 46 44 23 2 -7
1 -34 -3 -60 -7 -46 -6 -47 23 -58 17 -5 42 -10 57 -10 25 0 28 4 34 46 3 26
11 53 17 60 16 19 53 18 46 0 -22 -57 -28 -99 -15 -107 23 -15 82 -9 113 11
17 11 33 20 37 20 4 0 7 -196 6 -435 l0 -435 -81 0 c-45 0 -166 -3 -269 -7
l-188 -6 0 -64 0 -63 50 0 c49 0 49 0 56 -36 9 -49 -6 -647 -17 -687 -5 -17
-33 -56 -63 -87 -30 -31 -66 -82 -82 -117 -19 -41 -35 -63 -46 -63 -15 0 -15
6 4 68 31 105 67 332 57 359 -11 29 -34 39 -53 24 -19 -16 -55 -136 -87 -291
l-27 -135 -1 973 c-1 534 1 972 4 972 2 0 25 -31 51 -70 25 -38 49 -70 54 -70
4 0 10 -12 13 -27 4 -16 17 -41 30 -58 l25 -29 42 38 c23 20 44 36 46 33 2 -2
-3 -25 -12 -51 l-16 -48 38 -39 c21 -21 46 -39 56 -39 29 0 68 45 68 77 0 69
-193 321 -270 353 -17 7 -30 16 -30 21 0 12 9 11 66 -6 67 -20 73 -19 80 13
11 45 29 46 32 3 2 -21 11 -45 20 -54z m2725 -68 c4 -67 7 -265 7 -441 l0
-318 -35 0 -35 0 0 455 0 456 28 -15 c29 -15 29 -16 35 -137z m-654 -351 l1
-408 -35 0 -35 0 0 408 0 407 28 17 c25 16 27 16 34 0 4 -9 7 -200 7 -424z
m779 383 c9 -11 12 -107 12 -403 l0 -388 -29 0 c-17 0 -33 5 -37 11 -3 6 -3
193 1 415 8 433 6 420 53 365z m-925 -203 c4 -95 7 -267 7 -381 l0 -208 -31 3
-32 3 -3 367 c-3 337 -1 368 14 378 37 21 39 13 45 -162z m1050 132 l27 -13 0
-354 0 -353 -35 0 -35 0 0 371 c0 203 3 369 8 367 4 -2 19 -10 35 -18z m-1179
-402 l6 -308 -35 0 -35 0 -2 283 c-1 155 -4 248 -5 207 -3 -58 -8 -80 -25 -97
-19 -20 -20 -35 -22 -212 l-1 -190 -77 -3 -78 -3 -2 -547 c-2 -348 -7 -550
-13 -556 -5 -5 -45 -13 -87 -16 l-78 -7 0 770 0 770 93 63 c179 124 228 152
237 139 6 -10 10 -9 19 5 10 18 10 18 12 -1 1 -11 1 -24 0 -28 -1 -5 3 -6 9
-2 5 3 7 17 4 29 -4 17 3 31 28 56 l33 33 6 -39 c4 -21 9 -177 13 -346z m1336
-4 l0 -314 -35 0 -35 0 0 168 c0 93 3 244 7 335 l6 166 29 -20 28 -20 0 -315z
m170 223 c41 -24 134 -80 206 -124 179 -110 209 -126 282 -148 57 -17 71 -17
175 -5 76 9 307 14 715 16 l602 4 2 -80 c1 -44 2 -92 2 -106 1 -22 -8 -29 -74
-55 -41 -17 -104 -45 -140 -62 -36 -18 -68 -33 -72 -35 -4 -2 -8 13 -10 33
l-3 36 -425 2 -425 2 0 -565 0 -565 28 -75 c49 -132 49 -129 22 -136 -48 -12
-57 -2 -89 91 -34 98 -42 115 -57 115 -13 0 -54 -91 -70 -153 l-11 -47 -82 5
c-44 3 -142 13 -216 22 l-135 16 3 638 4 639 -59 0 c-32 0 -109 3 -171 7 -110
6 -113 7 -108 28 3 11 6 139 7 283 1 191 4 262 13 262 6 0 45 -19 86 -43z
m2405 -464 c14 -16 51 -73 82 -128 31 -55 66 -114 79 -131 l23 -31 -117 -6
c-184 -8 -898 -10 -890 -2 4 4 51 28 105 52 54 25 157 72 228 105 72 32 171
74 220 93 50 18 110 42 135 53 65 30 104 28 135 -5z m-805 -152 c0 -5 -6 -13
-13 -19 -13 -11 -274 -142 -282 -142 -3 0 -5 38 -5 85 l0 85 150 0 c83 0 150
-4 150 -9z m-401 -485 c0 -307 4 -493 11 -510 16 -42 13 -89 -5 -83 -8 4 -73
50 -144 104 l-130 98 -1 438 0 437 135 0 134 0 0 -484z m-1464 337 c0 -73 -1
-331 -3 -574 l-2 -440 -117 6 c-179 9 -171 4 -119 78 25 34 58 80 75 102 47
63 54 89 30 111 -17 16 -47 19 -217 24 -108 3 -207 4 -219 2 -11 -2 -54 -42
-94 -89 -93 -109 -112 -123 -162 -123 l-39 0 34 43 c72 87 85 144 38 158 -14
4 -72 10 -130 14 l-105 7 0 404 0 404 228 0 227 0 2 -57 2 -58 3 53 c2 28 6
52 8 52 16 0 35 -15 36 -29 0 -10 2 -11 6 -3 2 6 9 10 14 6 5 -3 9 4 9 15 0
20 7 21 183 24 100 1 211 3 247 2 l65 0 0 -132z m-1115 -262 c0 -409 -1 -401
45 -415 11 -3 2 -3 -20 -1 -22 2 -50 7 -63 11 -19 5 -34 -5 -90 -63 -37 -38
-81 -85 -98 -106 -33 -39 -70 -49 -76 -20 -2 9 -2 234 0 500 l2 483 150 0 150
0 0 -389z m1516 358 c-3 -17 -6 -278 -6 -580 l0 -549 -48 0 c-27 0 -96 3 -153
6 l-104 7 -2 573 -2 574 161 0 161 0 -7 -31z m-3145 -89 l149 0 0 -284 c0
-240 -2 -287 -15 -300 -8 -8 -15 -25 -15 -38 0 -16 -3 -19 -9 -10 -6 10 -10 8
-14 -8 -3 -12 -10 -19 -16 -15 -7 4 -11 -3 -11 -18 0 -16 -13 -33 -42 -54 -74
-53 -104 -86 -133 -146 -30 -61 -51 -85 -63 -73 -4 4 -8 222 -10 483 -3 438
-2 475 13 469 9 -3 84 -6 166 -6z m489 -424 c-1 -391 -2 -425 -18 -430 -9 -2
-58 -7 -109 -11 -110 -8 -106 -13 -101 135 l3 95 28 3 c15 2 34 -4 43 -13 9
-9 22 -14 28 -12 51 22 52 22 36 2 -14 -17 -13 -18 13 -13 21 4 27 2 23 -8 -3
-8 4 -18 14 -24 14 -7 20 -7 20 0 0 5 -5 10 -11 10 -5 0 -8 4 -4 9 6 11 -80
82 -149 123 l-46 27 0 266 0 265 115 0 115 0 0 -424z m238 -3 l-3 -428 -64 -3
c-35 -2 -67 1 -72 5 -10 11 -24 779 -14 821 l7 32 74 0 75 0 -3 -427z m213
360 c1 -38 2 -226 3 -419 l1 -352 -54 -6 c-30 -4 -56 -5 -58 -3 -2 3 -6 190
-10 417 -5 349 -4 413 8 421 8 5 35 9 62 9 l47 0 1 -67z m3535 -38 l129 -5 -3
-374 c-2 -366 -2 -375 17 -381 11 -3 36 -3 55 0 44 9 45 14 38 274 -5 194 -4
204 13 197 26 -10 214 -28 225 -21 5 3 12 1 15 -5 8 -13 34 -272 29 -282 -2
-3 -35 -10 -72 -13 -87 -10 -95 -15 -109 -67 -6 -24 -25 -61 -42 -83 -72 -95
-142 -197 -150 -218 -7 -19 -9 -17 -14 18 -3 22 -9 72 -12 110 -9 96 -72 402
-93 445 -18 38 -59 52 -80 28 -29 -36 -92 -299 -92 -389 0 -8 -3 -9 -9 -3 -12
12 -16 160 -13 502 2 269 3 283 20 278 10 -4 77 -8 148 -11z m418 -15 l99 0
-7 -102 c-3 -56 -11 -107 -17 -113 -5 -5 -54 -10 -107 -10 -53 0 -109 -4 -124
-9 l-28 -8 0 103 c0 143 4 153 49 145 20 -3 81 -6 135 -6z m434 -337 l-3 -348
-125 3 c-69 2 -133 6 -142 8 -26 8 -22 21 8 31 l26 9 -1 322 -2 322 121 0 120
0 -2 -347z m797 -31 c0 -286 3 -390 14 -430 7 -29 12 -55 10 -56 -2 -2 -21 -1
-42 3 -21 3 -99 5 -172 3 -123 -3 -135 -5 -140 -23 -4 -10 -13 -19 -22 -19
-14 0 -14 -2 1 -19 14 -15 32 -18 106 -19 50 0 92 4 96 9 10 16 20 9 22 -16 2
-28 -16 -40 -87 -59 -91 -24 -141 -20 -194 14 -26 16 -52 30 -57 30 -4 0 -10
4 -12 9 -1 5 -16 11 -33 14 -16 2 -39 8 -49 12 -39 17 -261 -26 -312 -60 -13
-8 -55 -20 -94 -27 -40 -7 -79 -20 -90 -30 -11 -10 -23 -18 -28 -18 -5 0 -19
-12 -31 -26 -19 -22 -25 -24 -33 -13 -8 12 -10 12 -15 0 -4 -9 -7 -10 -13 -2
-4 8 -16 -2 -33 -27 -32 -45 -33 -52 -8 -52 11 0 23 9 26 20 12 37 23 11 21
-45 -2 -46 -8 -61 -33 -88 -16 -18 -64 -75 -106 -127 -42 -52 -101 -120 -133
-150 l-57 -55 7 35 c3 19 44 95 90 170 130 210 144 234 236 414 48 93 94 172
101 176 16 9 178 15 311 12 l87 -2 7 -37 c9 -50 14 -57 27 -39 7 8 37 33 67
55 38 29 64 41 88 41 33 0 33 -1 30 -37 -3 -42 -3 -42 84 -27 32 5 39 11 47
40 12 43 68 135 137 224 30 39 52 76 48 82 -4 7 -65 8 -188 4 -99 -3 -184 -6
-188 -6 -4 0 -35 -35 -68 -77 -85 -111 -86 -112 -109 -106 -21 5 -21 10 -21
347 0 189 3 346 7 349 3 4 162 7 352 7 l346 0 0 -378z m-1650 -309 c22 -130
29 -211 32 -358 5 -235 -10 -592 -25 -607 -23 -23 -20 -39 -87 503 -25 204
-19 357 22 552 9 42 19 77 23 77 4 0 19 -75 35 -167z m-1986 12 c2 -2 -5 -15
-15 -28 -11 -13 -54 -70 -96 -125 l-78 -101 -77 -15 c-43 -9 -130 -29 -193
-44 -95 -22 -138 -27 -245 -27 -120 0 -133 2 -168 24 -39 24 -39 24 -19 44 16
16 50 23 169 38 216 27 212 25 328 143 l100 101 145 -3 c80 -2 147 -5 149 -7z
m-646 -7 c-3 -7 -47 -52 -97 -100 -88 -84 -95 -88 -176 -112 -47 -13 -119 -29
-160 -36 -41 -6 -105 -19 -141 -27 -59 -14 -85 -15 -234 -3 -115 9 -171 18
-181 27 -17 18 -18 33 -1 33 6 0 62 9 122 19 61 11 186 29 279 41 187 23 186
23 276 114 l54 56 133 0 c103 0 131 -3 126 -12z m3147 -26 c0 -15 -18 -59 -41
-97 -62 -107 -237 -438 -280 -532 -76 -166 -109 -183 -89 -47 32 215 141 426
334 649 53 61 76 70 76 27z m-938 -102 c87 -91 134 -161 201 -301 54 -113 123
-297 114 -306 -7 -7 -97 107 -97 123 0 8 -10 14 -21 14 -21 0 -21 3 -16 59 l6
58 -51 9 c-52 9 -53 10 -91 79 -63 115 -126 251 -136 294 -14 62 12 54 91 -29z
m-284 -237 c27 -139 42 -506 22 -544 -14 -26 -38 -24 -45 4 -47 211 -44 632 4
603 5 -3 13 -31 19 -63z m372 -169 c0 -8 -26 -54 -59 -102 -32 -48 -78 -118
-102 -157 -86 -139 -129 -177 -129 -117 0 34 28 120 60 182 24 48 110 163 143
193 25 22 87 23 87 1z m-600 -61 c34 -39 180 -312 180 -337 0 -14 -31 -4 -59
20 -47 39 -255 340 -246 355 4 5 24 9 45 9 33 0 44 -6 80 -47z m780 -173 c0
-17 -78 -87 -162 -146 -44 -31 -96 -70 -116 -88 -71 -62 -172 -114 -172 -88 0
22 72 115 144 187 100 99 179 144 254 145 28 0 52 -5 52 -10z m-917 -50 c31
-12 80 -40 107 -63 58 -48 202 -226 193 -240 -10 -17 -57 5 -142 66 -174 124
-270 209 -285 251 -6 17 -2 18 31 13 21 -3 64 -15 96 -27z"/>
<path d="M4522 5693 c-1 -7 -5 -12 -9 -12 -42 7 -41 9 -49 -144 -7 -133 -2
-157 31 -157 33 0 36 17 33 185 -2 77 -5 134 -6 128z"/>
<path d="M9140 4550 c-41 -11 -122 -28 -180 -39 -58 -11 -159 -33 -225 -49
-237 -59 -873 -224 -1030 -267 -88 -24 -221 -58 -295 -76 -74 -17 -184 -45
-245 -61 -60 -16 -186 -47 -280 -68 -298 -68 -379 -88 -410 -100 -16 -6 -86
-25 -155 -41 -117 -28 -199 -51 -479 -134 l-114 -34 -101 24 c-122 29 -392 80
-776 145 -157 27 -350 61 -430 75 -80 14 -248 41 -375 60 -126 19 -250 39
-275 44 -25 6 -76 15 -115 20 -248 37 -1169 183 -1360 216 -77 13 -246 43
-376 65 -236 40 -274 47 -594 115 -206 44 -426 78 -436 68 -4 -5 -2 -36 3 -71
9 -51 15 -63 32 -67 12 -2 98 -18 191 -35 94 -17 235 -45 315 -61 151 -30 511
-96 710 -129 63 -11 178 -31 255 -45 77 -14 228 -39 335 -55 107 -16 265 -41
350 -55 85 -14 180 -30 210 -35 30 -5 127 -20 215 -35 387 -63 468 -76 595
-96 74 -11 187 -31 250 -44 63 -13 200 -36 303 -50 103 -14 232 -35 285 -46
133 -28 126 -27 232 -40 100 -12 302 -59 337 -78 15 -8 22 -8 25 0 2 7 24 3
63 -10 33 -12 67 -21 77 -21 10 0 27 -5 37 -12 15 -9 30 -7 77 10 33 12 113
36 179 53 66 17 194 51 285 75 91 25 210 55 265 68 55 13 162 40 238 60 76 20
146 36 156 36 10 0 65 13 122 29 93 26 194 53 559 147 274 70 324 84 382 103
35 11 164 45 288 76 124 31 281 71 350 89 69 19 179 46 245 61 272 60 341 77
351 86 7 5 15 31 19 57 3 26 9 57 12 70 6 27 2 27 -97 2z"/>
<path d="M3015 4350 c3 -5 24 -10 46 -10 22 0 49 -5 60 -10 13 -8 19 -7 19 0
0 6 5 8 12 4 6 -4 26 -8 45 -10 37 -2 59 -17 68 -45 4 -10 15 -19 25 -19 10 0
21 -4 24 -9 15 -24 210 -58 359 -64 20 0 37 -5 37 -10 0 -5 6 -7 14 -4 8 3 59
-1 113 -9 54 -9 118 -17 143 -20 25 -2 50 -4 55 -5 6 -1 18 2 28 6 13 5 16 3
12 -7 -5 -11 1 -15 22 -15 58 -1 93 -6 93 -14 0 -5 10 -5 23 0 12 4 28 7 35 5
7 -1 8 0 2 3 -5 2 -10 14 -10 25 0 18 4 19 38 13 20 -4 65 -9 98 -10 34 -1 67
-5 73 -9 6 -4 11 -1 11 7 0 7 -6 14 -12 14 -7 0 -38 5 -68 11 -63 13 -265 41
-356 49 -40 4 -64 2 -68 -6 -11 -17 -26 -13 -26 7 0 23 -35 30 -368 72 -129
17 -284 39 -345 50 -120 22 -212 26 -202 10z"/>
<path d="M8720 3061 c0 -8 -53 -27 -160 -55 -81 -22 -235 -73 -320 -106 -80
-31 -333 -119 -650 -226 -107 -37 -258 -91 -335 -121 -77 -30 -210 -79 -295
-108 -291 -99 -555 -193 -660 -235 -58 -23 -204 -73 -325 -110 -413 -129 -657
-216 -827 -294 l-78 -35 0 -161 c0 -131 -3 -160 -14 -160 -8 0 -61 16 -118 36
-56 20 -197 69 -313 109 -197 68 -456 160 -760 270 -71 25 -206 76 -300 112
-93 36 -201 75 -240 88 -38 13 -144 51 -235 85 -91 34 -228 84 -305 110 -77
26 -207 73 -290 105 -197 75 -487 177 -600 210 -100 30 -190 59 -220 71 -20 8
-13 0 191 -236 212 -244 424 -447 629 -601 215 -163 515 -343 784 -471 557
-264 1250 -411 1856 -395 422 12 765 70 1217 207 485 148 1052 451 1428 764
261 219 566 563 827 936 128 183 150 220 129 220 -9 0 -16 -4 -16 -9z"/>
<path d="M1400 3045 c0 -3 18 -34 39 -68 l40 -63 70 4 c39 2 71 0 71 -5 0 -5
12 -10 27 -11 15 -1 30 -7 33 -12 3 -6 32 -11 63 -11 49 -1 57 -4 57 -20 0
-11 -4 -19 -10 -19 -15 0 -12 -49 4 -66 10 -10 39 -14 100 -14 78 0 86 2 86
19 0 21 39 36 54 21 6 -6 20 -10 33 -10 13 0 23 -4 23 -10 0 -5 -9 -10 -19
-10 -11 0 -23 -4 -26 -10 -3 -5 3 -10 14 -10 12 0 21 -7 21 -15 0 -8 9 -15 20
-15 14 0 20 7 20 21 0 18 4 20 33 14 51 -11 68 -24 31 -25 -28 0 -31 -3 -26
-25 2 -14 11 -25 18 -25 8 0 14 -9 14 -20 0 -11 -7 -20 -15 -20 -8 0 -15 -9
-15 -20 0 -11 7 -20 15 -20 8 0 15 9 15 20 0 11 5 20 11 20 7 0 8 13 4 39 -5
29 -3 40 8 44 28 10 52 0 55 -23 3 -19 0 -22 -16 -18 -16 5 -21 0 -24 -26 -7
-67 0 -83 40 -90 20 -3 67 -6 105 -6 59 0 67 2 67 19 0 11 -6 22 -12 24 -8 4
-4 8 9 12 13 4 23 17 25 32 l3 25 24 -21 c15 -13 28 -18 35 -12 6 5 20 5 31 0
11 -4 15 -8 9 -8 -15 -1 -13 -29 3 -35 7 -3 13 -2 13 2 0 4 18 7 39 7 22 0 38
-2 36 -4 -3 -2 7 -13 21 -23 16 -13 35 -19 54 -16 19 3 30 0 30 -8 0 -15 25
-25 45 -18 8 3 19 2 26 -2 7 -4 28 -8 48 -10 20 -2 37 -8 39 -14 2 -5 13 -10
23 -10 13 0 18 -4 13 -12 -5 -8 -2 -9 10 -5 20 8 76 -18 76 -34 0 -8 4 -8 14
0 10 8 16 8 25 -3 6 -7 32 -16 57 -19 27 -3 50 -12 58 -22 9 -13 20 -16 38
-12 17 5 31 1 45 -12 15 -15 23 -17 32 -8 8 8 11 8 11 -1 0 -7 3 -11 8 -11 4
1 16 1 27 0 17 -1 18 -3 5 -12 -12 -8 -11 -9 5 -7 11 2 26 -3 33 -12 8 -8 11
-9 7 -2 -7 14 -3 15 27 3 13 -5 37 -13 53 -16 27 -7 28 -8 10 -16 -16 -7 -14
-8 10 -5 38 5 250 -59 241 -73 -2 -3 6 -6 17 -6 12 -1 36 -4 52 -8 69 -17 -12
15 -225 88 -124 43 -340 117 -480 165 -140 48 -325 113 -410 144 -85 31 -279
99 -430 150 -151 51 -302 104 -335 118 -33 13 -143 51 -245 82 -102 32 -203
67 -226 77 -40 19 -64 24 -64 14z"/>
</g>
</svg>
